HIERARCHY
ROOT Hips
{
	OFFSET 0.00000 0.00000 0.00000
	CHANNELS 6 Xposition Yposition Zposition Zrotation Yrotation Xrotation 
	JOINT LHipJoint
	{
		OFFSET 0 0 0
		CHANNELS 3 Zrotation Yrotation Xrotation
		JOINT LeftHip
		{
			OFFSET 1.26600 -1.82114 0.91038
			CHANNELS 3 Zrotation Yrotation Xrotation
			JOINT LeftKnee
			{
				OFFSET 2.50076 -6.87080 0.00000
				CHANNELS 3 Zrotation Yrotation Xrotation
				JOINT LeftAnkle
				{
					OFFSET 2.57364 -7.07102 0.00000
					CHANNELS 3 Zrotation Yrotation Xrotation
					JOINT LeftToe
					{
						OFFSET 0.13572 -0.37290 1.97004
						CHANNELS 3 Zrotation Yrotation Xrotation
						End Site
						{
							OFFSET 0.00000 -0.00000 1.01383
						}
					}
				}
			}
		}
	}
	JOINT RHipJoint
	{
		OFFSET 0 0 0
		CHANNELS 3 Zrotation Yrotation Xrotation
		JOINT RightHip
		{
			OFFSET -1.20803 -1.82114 0.91038
			CHANNELS 3 Zrotation Yrotation Xrotation
			JOINT RightKnee
			{
				OFFSET -2.54916 -7.00377 0.00000
				CHANNELS 3 Zrotation Yrotation Xrotation
				JOINT RightAnkle
				{
					OFFSET -2.56374 -7.04382 0.00000
					CHANNELS 3 Zrotation Yrotation Xrotation
					JOINT RightToe
					{
						OFFSET -0.23520 -0.64621 2.09921
						CHANNELS 3 Zrotation Yrotation Xrotation
						End Site
						{
							OFFSET -0.00000 -0.00000 1.10065
						}
					}
				}
			}
		}
	}
	JOINT lowerback
	{
		OFFSET 0 0 0
		CHANNELS 3 Zrotation Yrotation Xrotation
		JOINT Chest
		{
			OFFSET 0.05492 2.10797 -0.12074
			CHANNELS 3 Zrotation Yrotation Xrotation
			JOINT Chest2
			{
				OFFSET 0.04577 2.11592 -0.04483
				CHANNELS 3 Zrotation Yrotation Xrotation
				JOINT lowerneck
				{
					OFFSET 0 0 0
					CHANNELS 3 Zrotation Yrotation Xrotation
					JOINT Neck
					{
						OFFSET -0.10759 1.80167 0.15770
						CHANNELS 3 Zrotation Yrotation Xrotation
						JOINT Head
						{
							OFFSET 0.09237 1.77509 -0.40848
							CHANNELS 3 Zrotation Yrotation Xrotation
							End Site
							{
								OFFSET 0.03805 1.84093 -0.15754
							}
						}
					}
				}
				JOINT LeftCollar
				{
					OFFSET 0 0 0
					CHANNELS 3 Zrotation Yrotation Xrotation
					JOINT LeftShoulder
					{
						OFFSET 3.42372 1.09575 -0.28209
CHANNELS 3 Zrotation Xrotation Yrotation
						JOINT LeftElbow
						{
OFFSET 0 -4.956810 0.000000
CHANNELS 3 Zrotation Xrotation Yrotation
							JOINT LeftWrist
							{
OFFSET 0 -3.409150 0.000000
CHANNELS 3 Zrotation Xrotation Yrotation
								JOINT lhand
								{
									OFFSET 0 0 0
CHANNELS 3 Zrotation Xrotation Yrotation
									JOINT LFingers
									{
OFFSET 0 -0.616400 0.000000
CHANNELS 3 Zrotation Xrotation Yrotation
										End Site
										{
OFFSET 0 -0.496960 0.000000
										}
									}
								}
								JOINT LThumb
								{
OFFSET 0 0.000000 0.000000
CHANNELS 3 Zrotation Xrotation Yrotation
									End Site
									{
OFFSET 0 -0.504550 0.504550
									}
								}
							}
						}
					}
				}
				JOINT RightCollar
				{
					OFFSET 0 0 0
					CHANNELS 3 Zrotation Yrotation Xrotation
					JOINT RightShoulder
					{
						OFFSET -3.24731 1.15872 -0.32221
CHANNELS 3 Zrotation Xrotation Yrotation
						JOINT RightElbow
						{
OFFSET 0 -5.352000 0.000000
CHANNELS 3 Zrotation Xrotation Yrotation
							JOINT RightWrist
							{
OFFSET 0 -3.437210 -0.000000
CHANNELS 3 Zrotation Xrotation Yrotation
								JOINT rhand
								{
									OFFSET 0 0 0
CHANNELS 3 Zrotation Xrotation Yrotation
									JOINT RFingers
									{
OFFSET 0 -0.720090 0.000000
CHANNELS 3 Zrotation Xrotation Yrotation
										End Site
										{
OFFSET 0 -0.580560 0.000000
										}
									}
								}
								JOINT RThumb
								{
OFFSET 0 0.000000 0.000000
CHANNELS 3 Zrotation Xrotation Yrotation
									End Site
									{
OFFSET 0 -0.589420 0.589420
									}
								}
							}
						}
					}
				}
			}
		}
	}
}
MOTION
Frames: 8
Frame Time: .0083333
-1.5186 20.3162 -10.5918 -104.8810 83.4634 -104.6200 0.0000 0.0000 0.0000 -13.6408 -4.8751 -7.5463 3.2476 11.0854 32.5685 0.5652 -14.2341 -15.6288 0.2172 3.0005 8.2802 0.0000 0.0000 0.0000 29.0507 -2.5195 -7.7849 -2.8376 -10.4274 30.3721 -1.6565 4.7730 -23.2643 -0.3958 -4.0395 11.1877 3.5495 0.3980 2.6059 2.9832 0.7804 -0.9680 1.0401 0.3802 -2.4543 -8.2048 -2.1661 -16.5145 3.5546 -1.1128 29.1642 2.6466 -0.7107 12.4977 -0.0000 0.0000 0.0000 0.8029 3.6972 -23.815 13.7607 -22.3916 2.7363 19.2602 10.3036 -19.4536 0.0 0.0 0.0 -7.1250 0.0 0.0 -9.0281 50.2764 1.1825 -0.0000 0.0000 0.0000 -2.4187 5.9169 20.2935 -13.2529 -21.6566 -2.5459 -19.0291 -14.0542 -13.317 0.0 0.0 0.0 7.1250 0.0 -0.0 5.7207 15.9692 3.946
-1.5152 20.3029 -10.5690 -105.0920 83.1432 -104.9710 0.0000 0.0000 0.0000 -13.2125 -5.2519 -7.9487 3.4823 11.4376 33.7703 0.5270 -14.1940 -15.2767 0.3112 3.5863 9.9156 0.0000 0.0000 0.0000 29.4810 -2.4593 -7.4962 -2.7759 -10.3230 30.0293 -1.6221 4.7343 -23.0164 -0.4729 -4.4106 12.2349 3.7763 0.4052 2.7968 3.1664 0.8158 -0.8722 1.0993 0.3990 -2.4632 -8.5766 -2.2403 -16.5667 3.6515 -1.1286 29.1956 2.7463 -0.7464 12.5287 0.0000 -0.0000 0.0000 0.7433 3.5001 -23.6668 13.8988 -22.5898 2.7891 19.2989 9.811 -19.34 0.0 0.0 0.0 -7.1250 0.0 0.0 -8.9543 50.1658 1.1483 0.0000 -0.0000 0.0000 -2.4921 5.7562 19.6404 -13.1731 -21.5404 -2.5165 -19.2695 -13.8071 -13.9692 0.0 0.0 0.0 7.1250 0.0 -0.0 5.5745 15.2646 3.9291
-1.5142 20.2921 -10.5542 -104.7180 82.6445 -104.7270 0.0000 0.0000 0.0000 -12.5753 -5.6624 -8.5537 3.8008 11.8905 35.3456 0.4871 -14.3035 -14.9694 0.4322 4.2190 11.6936 0.0000 0.0000 0.0000 30.0670 -2.5136 -7.1731 -2.6929 -10.1804 29.5630 -1.5775 4.8990 -22.6638 -0.5188 -4.6164 12.8177 4.3195 0.4181 2.9827 3.3024 0.8714 -0.7703 0.9322 0.4235 -2.4578 -8.6083 -2.2883 -16.5904 3.5843 -1.1626 29.2140 2.7210 -0.7738 12.5446 -0.0000 -0.0000 0.0000 0.8383 3.3911 -23.8061 14.1208 -22.9072 2.875 19.0361 9.4514 -19.4217 0.0 0.0 0.0 -7.1250 0.0 0.0 -9.2355 50.2076 1.1944 -0.0000 -0.0000 0.0000 -2.5591 5.7929 19.7214 -13.3364 -21.7781 -2.5767 -19.2988 -13.8433 -14.0457 0.0 0.0 0.0 7.1250 0.0 -0.0 5.5569 15.1818 3.9265
-1.5107 20.2838 -10.5331 -103.8530 81.9296 -104.0610 0.0000 0.0000 0.0000 -11.6595 -5.8899 -9.1951 4.1379 12.3416 36.9515 0.4598 -14.3196 -14.7317 0.3968 4.0445 11.2020 0.0000 0.0000 0.0000 30.9550 -2.6501 -6.7442 -2.6079 -10.0316 29.0790 -1.5527 4.8465 -22.4845 -0.4519 -4.3127 11.9580 4.9575 0.4568 3.1944 3.5080 0.9716 -0.6236 0.7820 0.4722 -2.4193 -8.6212 -2.3626 -16.6911 3.6085 -1.2634 29.2611 2.7183 -0.8172 12.5929 -0.0000 -0.0000 0.0000 0.9346 3.1654 -23.8342 14.2752 -23.1268 2.9353 18.8434 9.5151 -19.3983 0.0 0.0 0.0 -7.1250 0.0 0.0 -9.4147 50.1528 1.2051 -0.0000 -0.0000 0.0000 -2.6514 5.8345 20.3201 -13.5646 -22.1088 -2.662 -19.4435 -14.2353 -13.4738 0.0 0.0 0.0 7.1250 0.0 -0.0 5.4400 15.7664 3.7745
-1.5091 20.2745 -10.5084 -102.7500 81.0582 -103.1510 0.0000 0.0000 0.0000 -10.5407 -5.9307 -10.0332 4.5254 12.8286 38.7301 0.4103 -14.2461 -14.2443 0.3777 3.9470 10.9275 0.0000 0.0000 0.0000 32.0210 -2.9652 -6.3734 -2.5210 -9.8760 28.5761 -1.5251 4.8601 -22.2741 -0.4524 -4.3152 11.9650 5.7167 0.5607 3.4674 3.8544 1.1879 -0.5638 0.7033 0.5785 -2.5016 -8.9650 -2.5074 -16.4556 3.7208 -1.4211 29.1506 2.7933 -0.9084 12.5176 0.0000 0.0000 0.0000 0.7708 2.9874 -23.6971 14.3615 -23.2491 2.9693 18.8357 9.595 -19.182 0.0 0.0 0.0 -7.1250 0.0 0.0 -9.3527 49.9301 1.1455 0.0000 0.0000 0.0000 -2.9416 5.8672 20.3002 -13.5245 -22.0509 -2.647 -19.6742 -14.069 -13.2824 0.0 0.0 0.0 7.1250 0.0 -0.0 5.2756 15.9454 3.639
-1.5079 20.2749 -10.4915 -103.0440 80.5864 -103.6050 0.0000 0.0000 0.0000 -9.9108 -6.0652 -10.9536 4.9516 13.3291 40.6131 0.3216 -14.1083 -13.3344 0.4021 4.0712 11.2772 0.0000 0.0000 0.0000 32.5680 -3.3601 -6.0769 -2.4415 -9.7307 28.1090 -1.5065 5.0173 -22.1142 -0.5686 -4.8293 13.4225 6.2030 0.6608 3.7267 4.0398 1.3816 -0.5375 0.6110 0.6722 -2.6103 -9.3376 -2.7079 -16.0379 3.7740 -1.6505 28.9753 2.8379 -1.0411 12.3863 0.0000 0.0000 0.0000 0.6606 2.942 -24.0775 14.5096 -23.4586 3.028 19.3634 9.1834 -19.0972 0.0 0.0 0.0 -7.1250 0.0 0.0 -8.8156 49.9267 1.0781 0.0000 0.0000 0.0000 -3.0925 5.8889 19.5003 -13.4353 -21.9217 -2.6136 -19.356 -13.2781 -13.6178 0.0 0.0 0.0 7.1250 0.0 -0.0 5.5045 15.624 3.8366
-1.5046 20.2814 -10.4750 -104.0150 80.3872 -104.6850 0.0000 0.0000 0.0000 -9.5468 -6.1069 -12.0522 5.4064 13.8274 42.5504 0.2233 -14.0002 -12.2941 0.3341 3.7146 10.2751 0.0000 0.0000 0.0000 32.8125 -3.5965 -5.8024 -2.3743 -9.6058 27.7092 -1.4835 4.9927 -21.9406 -0.6306 -5.0811 14.1399 6.2841 0.6395 3.8763 4.1151 1.3681 -0.4041 0.6431 0.6695 -2.5573 -9.2338 -2.8012 -16.0224 3.5769 -1.7584 28.9225 2.7262 -1.1033 12.3686 -0.0000 -0.0000 0.0000 0.7322 2.7433 -24.5369 14.6730 -23.6886 3.0934 20.2379 8.5467 -19.2251 0.0 0.0 0.0 -7.1250 0.0 0.0 -8.0058 50.1986 1.0316 -0.0000 -0.0000 0.0000 -3.0615 5.6243 18.8882 -13.4011 -21.8721 -2.6008 -18.611 -12.5931 -13.6208 0.0 0.0 0.0 7.1250 0.0 -0.0 6.0158 15.6907 4.1882
-1.5013 20.2836 -10.4576 -104.1710 80.0458 -104.9140 0.0000 0.0000 0.0000 -8.9550 -6.1068 -13.2566 5.8834 14.3144 44.5120 0.1099 -13.9232 -11.0388 0.2392 3.1477 8.6901 0.0000 0.0000 0.0000 33.2255 -3.7681 -5.6087 -2.3273 -9.5169 27.4259 -1.4424 4.9309 -21.6291 -0.5846 -4.8955 13.6108 6.4384 0.5963 3.9723 4.2397 1.3248 -0.2287 0.6884 0.6550 -2.4312 -8.9804 -2.7745 -16.2358 3.4461 -1.7406 28.9220 2.6346 -1.0860 12.4056 -0.0000 0.0000 0.0000 0.7434 2.3945 -24.3698 14.7771 -23.8346 3.1353 20.989 8.4701 -19.3773 0.0 0.0 0.0 -7.1250 0.0 0.0 -7.3177 50.4789 0.9927 -0.0000 0.0000 0.0000 -3.1608 5.2941 18.8551 -13.4099 -21.8849 -2.6041 -18.1152 -12.3035 -13.3104 0.0 0.0 0.0 7.1250 0.0 -0.0 6.3496 16.0583 4.3727
